<svg width="40" height="40" viewBox="0 0 40 40" fill="none" xmlns="http://www.w3.org/2000/svg">
<path d="M37.4993 31.3346H32.499C32.1195 31.3354 31.7447 31.2495 31.4035 31.0833C31.0622 30.9172 30.7634 30.6752 30.53 30.3759L25.6548 24.1571C25.5481 24.0207 25.4015 23.9209 25.2354 23.8717C25.0693 23.8224 24.892 23.8262 24.7282 23.8824C24.5644 23.9385 24.4222 24.0443 24.3213 24.1849C24.2204 24.3256 24.1658 24.4943 24.1652 24.6674V27.1675C24.1652 29.4699 21.9254 31.3346 19.165 31.3346C18.0858 31.3444 17.0265 31.0443 16.1127 30.47C9.11232 25.9904 4.36202 20.334 0.237057 11.5629C0.058234 11.182 -0.0215848 10.7622 0.00499424 10.3423C0.0315733 9.92238 0.163691 9.51598 0.389108 9.16072C0.614526 8.80546 0.925954 8.51283 1.29454 8.30994C1.66314 8.10704 2.07697 8.00045 2.49771 8.00003H7.49794C7.98737 7.99886 8.46638 8.14135 8.87559 8.40983C9.2848 8.67832 9.60622 9.06099 9.80001 9.51042L10.3625 10.8231C11.2123 12.795 12.3537 14.6281 13.7482 16.261C13.7937 16.3098 13.8584 16.3366 13.9252 16.3339C13.9556 16.3368 13.9863 16.3332 14.0153 16.3235C14.0443 16.3138 14.0709 16.2981 14.0934 16.2775C14.116 16.2569 14.1341 16.2318 14.1464 16.2038C14.1587 16.1758 14.165 16.1456 14.1648 16.115V12.8544C13.021 12.4458 12.3367 11.2742 12.5421 10.0772C12.7475 8.88023 13.7835 8.0041 14.9983 8.00003H21.665C23.0457 8.00003 24.1651 9.11946 24.1651 10.5002V16.3339C24.1654 16.515 24.2247 16.6911 24.3341 16.8355C24.4434 16.9799 24.5968 17.0847 24.771 17.1342C24.9453 17.1836 25.1309 17.1749 25.2998 17.1094C25.4686 17.0439 25.6116 16.9252 25.7069 16.7712L30.3632 9.1979C30.5851 8.83047 30.8986 8.52692 31.273 8.31695C31.6473 8.10698 32.0698 7.99778 32.499 8.00003H37.4993C37.9526 8.00021 38.3974 8.12368 38.786 8.3572C39.1746 8.59073 39.4924 8.92553 39.7053 9.32577C39.9183 9.72602 40.0184 10.1766 39.9949 10.6294C39.9714 11.0821 39.8253 11.52 39.5721 11.8961L34.3219 19.1777C34.2185 19.32 34.1628 19.4914 34.1628 19.6673C34.1628 19.8433 34.2185 20.0147 34.3219 20.157L39.5306 27.3759C39.7988 27.7496 39.9588 28.19 39.9929 28.6486C40.027 29.1073 39.9339 29.5665 39.724 29.9757C39.514 30.3849 39.1952 30.7282 38.8027 30.968C38.4102 31.2077 37.9592 31.3346 37.4993 31.3346ZM24.9987 22.1673C25.3782 22.1665 25.7529 22.2525 26.0941 22.4186C26.4353 22.5847 26.734 22.8267 26.9675 23.1259L31.8425 29.3447C31.9202 29.4449 32.0197 29.5261 32.1335 29.582C32.2472 29.638 32.3723 29.6673 32.499 29.6676H37.4993C37.6531 29.6681 37.8041 29.6259 37.9355 29.5458C38.0669 29.4657 38.1735 29.3508 38.2436 29.2138C38.3137 29.0768 38.3445 28.9231 38.3326 28.7697C38.3207 28.6162 38.2666 28.4691 38.1762 28.3446L32.9678 21.1257C32.6601 20.6997 32.4944 20.1876 32.4944 19.6621C32.4944 19.1366 32.6601 18.6245 32.9678 18.1986L38.2076 10.9378C38.29 10.8068 38.3333 10.6549 38.3324 10.5002C38.3324 10.04 37.9595 9.66667 37.4993 9.66667H32.499C32.357 9.66678 32.2174 9.70321 32.0934 9.7725C31.9694 9.84179 31.8652 9.94164 31.7906 10.0626L27.1341 17.6358C26.5512 18.5935 25.4018 19.0461 24.3223 18.7427C23.2429 18.4397 22.4976 17.4549 22.4986 16.3339V10.5002C22.4986 10.04 22.1253 9.66667 21.6651 9.66667H14.9982C14.5377 9.66667 14.1647 10.04 14.1647 10.5002C14.1647 10.9603 14.5377 11.3336 14.9982 11.3336H15.8314V16.1151C15.8268 16.5014 15.7049 16.8772 15.4819 17.1927C15.259 17.5082 14.9455 17.7485 14.5829 17.8818C14.2203 18.0151 13.8257 18.035 13.4515 17.939C13.0773 17.843 12.7411 17.6356 12.4874 17.3443C10.986 15.5862 9.75709 13.6128 8.8416 11.4899L8.26845 10.1773C8.20473 10.0257 8.09756 9.89626 7.96043 9.80539C7.82331 9.71452 7.66236 9.66626 7.49787 9.66667H2.49763C2.21324 9.66824 1.94917 9.81473 1.79721 10.0552C1.72246 10.1735 1.67871 10.3088 1.67001 10.4485C1.66132 10.5882 1.68794 10.7278 1.74744 10.8545C5.77904 19.4275 10.2061 24.7092 17.0189 29.0741C17.6643 29.4694 18.4081 29.6751 19.165 29.6676C20.9983 29.6676 22.4986 28.5427 22.4986 27.1675V24.6674C22.4986 23.2867 23.6177 22.1673 24.9987 22.1673Z" fill="white"/>
</svg>
