<svg width="40" height="40" viewBox="0 0 40 40" fill="none" xmlns="http://www.w3.org/2000/svg">
<path d="M27.4661 22.0911C27.2985 21.9968 27.1085 21.8899 26.8796 21.7521C26.7518 21.675 26.5912 21.5695 26.421 21.4578C25.5473 20.8843 24.8853 20.4785 24.3218 20.4785C24.1898 20.4785 24.0649 20.5008 23.9511 20.5447C23.4574 20.7348 23.052 21.2428 22.6599 21.7339C22.5163 21.9138 22.3106 22.1714 22.1858 22.2866C21.6908 22.1966 20.6467 21.5498 19.52 20.4231C18.392 19.2951 17.7451 18.2498 17.6563 17.756C17.7713 17.6308 18.0309 17.4236 18.212 17.279C18.7012 16.8884 19.2072 16.4844 19.3984 15.9923C19.6422 15.3599 19.1953 14.6036 18.4854 13.5222C18.3737 13.3519 18.2682 13.1912 18.1916 13.0644C18.0533 12.8346 17.9465 12.6445 17.8522 12.4769C17.4651 11.7891 17.2094 11.3345 16.2485 11.3345C15.6249 11.3345 14.7431 11.9238 14.1459 12.5082C13.2779 13.3578 12.7998 14.3386 12.7998 15.2719C12.8015 17.8068 14.2162 20.7122 16.6813 23.2459C16.6855 23.2501 16.6897 23.2512 16.6941 23.2555C19.2278 25.7206 22.1348 27.1305 24.6696 27.1305H24.6706C25.6027 27.1305 26.5838 26.6579 27.4333 25.7904C28.0182 25.1932 28.6083 24.3179 28.6083 23.6946C28.6083 22.7339 28.154 22.4782 27.4661 22.0911ZM24.6699 25.8209C22.5107 25.8193 19.8768 24.5108 17.6229 22.3204C15.4323 20.0663 14.1238 17.4322 14.1224 15.2732C14.1224 13.9673 15.8171 12.7256 16.2603 12.6575C16.3508 12.6579 16.3983 12.6633 16.4209 12.6671C16.4795 12.7346 16.596 12.9416 16.6996 13.1259C16.7935 13.2926 16.9103 13.5003 17.0591 13.7475C17.149 13.8965 17.2612 14.0673 17.3799 14.2481C17.6045 14.5904 18.0561 15.2784 18.1322 15.572C18.0049 15.7522 17.61 16.0675 17.387 16.2455C16.8162 16.7012 16.3233 17.0947 16.3233 17.6507C16.3247 18.9939 18.0548 20.8283 18.585 21.3585C19.1152 21.8887 20.9496 23.6188 22.2956 23.6201C22.8481 23.6183 23.2399 23.1274 23.6936 22.5591C23.8726 22.335 24.1898 21.9376 24.3707 21.811C24.6641 21.8866 25.3529 22.3387 25.6954 22.5636C25.8762 22.6822 26.047 22.7943 26.1969 22.8848C26.4433 23.0331 26.6508 23.1499 26.8177 23.2438C27.0019 23.3474 27.209 23.464 27.2764 23.5226C27.2802 23.5451 27.2855 23.5926 27.286 23.683C27.2174 24.1258 25.9754 25.8193 24.6699 25.8209Z" fill="white"/>
<path d="M33.8519 19.5486C33.8055 15.9751 32.3711 12.5982 29.813 10.0401C27.2077 7.43483 23.7688 6 20.1296 6C16.6166 6 13.3302 7.35177 10.8757 9.80621C8.69758 11.9843 7.36128 14.8893 7.11271 17.9861C6.87697 20.9242 7.62493 23.8976 9.2221 26.3976L7.04109 32.2929C6.94957 32.5404 7.01385 32.8186 7.20476 33.0007C7.3302 33.1205 7.49453 33.1837 7.66143 33.1837C7.74845 33.1837 7.83627 33.1585 7.91952 33.1231L13.5998 30.7059C15.7682 32.0555 18.2477 32.7511 20.7937 32.7511H20.794C24.3064 32.7511 27.5927 31.4155 30.0469 28.9613C32.547 26.4611 33.8984 23.1286 33.8519 19.5486ZM29.1116 28.0422C26.9071 30.2467 23.953 31.4608 20.7937 31.4607C18.3884 31.4606 16.0483 30.7567 14.0263 29.4247C13.9167 29.3525 13.79 29.3157 13.6625 29.3157C13.575 29.3157 13.4872 29.3331 13.4044 29.3683L8.81277 31.3157L10.5784 26.5432C10.6522 26.3435 10.6254 26.1204 10.5063 25.9439C7.26103 21.1361 7.80969 14.7425 11.8108 10.7414C14.0155 8.53677 16.9698 7.32254 20.1296 7.32254C23.4155 7.32254 26.5223 8.61976 28.8778 10.9753C31.1907 13.2881 32.4875 16.339 32.5294 19.5658C32.5713 22.7861 31.3575 25.7964 29.1116 28.0422Z" fill="white"/>
</svg>
