<svg width="1650" height="1038" viewBox="0 0 1650 1038" fill="none" xmlns="http://www.w3.org/2000/svg">
<path d="M229.303 276.372L313.673 154.562L556.555 148.363L721.236 366.692L704.801 536.782L791.074 660.193L882.564 785.328L739.865 908.04L421.142 794.278L407.936 556.858L341.658 356.593L229.303 276.372Z" fill="#023359"/>
<path d="M1128.88 464.731C1129.63 460.626 1130.25 456.52 1130.7 452.415C1140.97 375.437 1128.43 308.723 1094.11 243.98L1094.44 244.801C1035.61 138.798 933.939 61.2451 828.664 27.0054C751.167 1.79773 675.491 -5.18158 584.416 6.47798C608.675 4.42873 633.1 7.30643 656.2 14.9353C786.852 58.0017 865.177 211.547 821.792 340.459C811.058 372.162 806.492 405.598 808.337 438.99C808.593 449.504 809.883 459.967 812.187 470.233C819.788 504.506 838.533 535.354 865.537 558.031C892.542 580.709 926.311 593.96 961.651 595.747C996.991 597.533 1031.94 587.756 1061.13 567.92C1090.32 548.083 1112.13 519.286 1123.21 485.957C1125.57 479.014 1127.47 471.924 1128.88 464.731Z" fill="#023359"/>
<path d="M5.34014 573.28C4.56738 577.386 3.94642 581.491 3.47724 585.596C-6.78946 662.533 5.75413 729.288 40.1145 794.032L39.7419 793.211C98.6099 899.214 200.242 976.766 305.558 1011.01C383.056 1036.21 458.731 1043.15 549.807 1031.53C525.586 1033.57 501.2 1030.68 478.147 1023.04C347.453 979.928 269.128 826.424 312.555 697.512C323.295 665.811 327.847 632.371 325.968 598.98C325.191 565.962 314.159 533.986 294.377 507.417C274.595 480.847 247.026 460.98 215.435 450.526C195.287 443.819 174.001 441.122 152.8 442.592C131.598 444.061 110.898 449.667 91.8863 459.088C72.8746 468.51 55.9256 481.561 42.0117 497.493C28.0977 513.425 17.4926 531.925 10.8047 551.932C8.48546 558.913 6.65953 566.047 5.34014 573.28Z" fill="#023359"/>
<path d="M1000.67 707.282C1003.03 699.072 1005.52 686.18 1006.8 679.078C1007.54 674.972 1008.08 670.867 1008.5 666.761C1010.36 651.121 1011.19 635.378 1010.98 619.63C973.826 631.526 933.8 631.266 896.805 618.892C836.612 599.021 793.889 552.054 779.814 498.273C777.104 487.957 775.481 477.39 774.97 466.743C772.126 433.271 776.197 399.576 786.934 367.718C830.195 238.765 767.602 82.2645 626.724 35.7905C606.025 28.9754 577.792 25.5679 548.068 25.5679C344.141 41.9898 179.129 163.717 133.426 330.482C131.149 339.267 128.541 351.584 127.299 358.686C126.554 362.792 125.974 366.897 125.601 371.003C123.75 386.644 122.907 402.386 123.076 418.134C160.248 406.243 200.29 406.516 237.293 418.914C297.486 438.784 340.209 485.751 354.242 539.492C356.971 549.817 358.595 560.399 359.086 571.063C361.916 604.526 357.816 638.211 347.039 670.046C303.82 798.958 366.413 955.5 507.291 1001.97C527.99 1008.79 561.108 1012.2 585.947 1012.2C789.915 995.815 954.969 874.088 1000.67 707.282Z" fill="#023359"/>
<path d="M1650 676.697C1650 955.089 1351.4 1037.2 788.259 1037.2C788.259 1037.2 1071.63 964.573 1155.17 609.531C1186.59 480.701 1297.37 431.271 1408.77 437.512C1556.44 446.01 1650 554.928 1650 676.697Z" fill="#023359"/>
<path d="M1392.42 886.446C1504.61 886.446 1595.56 796.251 1595.56 684.99C1595.56 573.729 1504.61 483.534 1392.42 483.534C1280.23 483.534 1189.28 573.729 1189.28 684.99C1189.28 796.251 1280.23 886.446 1392.42 886.446Z" fill="#023359"/>
<path d="M1598.54 456.438C1508.67 240.736 1330.53 97.9885 946.648 36.3242C946.648 36.3242 1244.38 163.964 1186.05 477.212C1186.05 477.212 1247.2 387.712 1382.24 387.712C1529.28 387.712 1598.54 456.438 1598.54 456.438Z" fill="#023359"/>
</svg>
